<svg width="117" height="88" viewBox="0 0 117 88" fill="none" xmlns="http://www.w3.org/2000/svg">
<g opacity="0.3">
<mask id="mask0_1_11" style="mask-type:alpha" maskUnits="userSpaceOnUse" x="31" y="10" width="8" height="8">
<path d="M34.9096 17.9773C37.0689 17.9773 38.8193 16.1915 38.8193 13.9886C38.8193 11.7858 37.0689 10 34.9096 10C32.7504 10 31 11.7858 31 13.9886C31 16.1915 32.7504 17.9773 34.9096 17.9773Z" fill="url(#paint0_linear_1_11)"/>
</mask>
<g mask="url(#mask0_1_11)">
<path d="M34.9096 17.9773C37.0689 17.9773 38.8193 16.1915 38.8193 13.9886C38.8193 11.7858 37.0689 10 34.9096 10C32.7504 10 31 11.7858 31 13.9886C31 16.1915 32.7504 17.9773 34.9096 17.9773Z" fill="url(#paint1_linear_1_11)"/>
</g>
<mask id="mask1_1_11" style="mask-type:alpha" maskUnits="userSpaceOnUse" x="53" y="10" width="9" height="8">
<path d="M57.5525 17.9773C59.7117 17.9773 61.4621 16.1915 61.4621 13.9886C61.4621 11.7858 59.7117 10 57.5525 10C55.3933 10 53.6429 11.7858 53.6429 13.9886C53.6429 16.1915 55.3933 17.9773 57.5525 17.9773Z" fill="url(#paint2_linear_1_11)"/>
</mask>
<g mask="url(#mask1_1_11)">
<path d="M57.5529 17.9773C59.7121 17.9773 61.4625 16.1915 61.4625 13.9886C61.4625 11.7858 59.7121 10 57.5529 10C55.3937 10 53.6432 11.7858 53.6432 13.9886C53.6432 16.1915 55.3937 17.9773 57.5529 17.9773Z" fill="url(#paint3_linear_1_11)"/>
</g>
<mask id="mask2_1_11" style="mask-type:alpha" maskUnits="userSpaceOnUse" x="76" y="10" width="9" height="8">
<path d="M80.1953 17.9773C82.3546 17.9773 84.105 16.1915 84.105 13.9886C84.105 11.7858 82.3546 10 80.1953 10C78.0361 10 76.2857 11.7858 76.2857 13.9886C76.2857 16.1915 78.0361 17.9773 80.1953 17.9773Z" fill="url(#paint4_linear_1_11)"/>
</mask>
<g mask="url(#mask2_1_11)">
<path d="M80.196 17.9773C82.3552 17.9773 84.1056 16.1915 84.1056 13.9886C84.1056 11.7858 82.3552 10 80.196 10C78.0368 10 76.2864 11.7858 76.2864 13.9886C76.2864 16.1915 78.0368 17.9773 80.196 17.9773Z" fill="url(#paint5_linear_1_11)"/>
</g>
<mask id="mask3_1_11" style="mask-type:alpha" maskUnits="userSpaceOnUse" x="98" y="10" width="9" height="8">
<path d="M102.838 17.9773C104.997 17.9773 106.748 16.1915 106.748 13.9886C106.748 11.7858 104.997 10 102.838 10C100.679 10 98.9285 11.7858 98.9285 13.9886C98.9285 16.1915 100.679 17.9773 102.838 17.9773Z" fill="url(#paint6_linear_1_11)"/>
</mask>
<g mask="url(#mask3_1_11)">
<path d="M102.839 17.9773C104.998 17.9773 106.748 16.1915 106.748 13.9886C106.748 11.7858 104.998 10 102.839 10C100.68 10 98.9291 11.7858 98.9291 13.9886C98.9291 16.1915 100.68 17.9773 102.839 17.9773Z" fill="url(#paint7_linear_1_11)"/>
</g>
<mask id="mask4_1_11" style="mask-type:alpha" maskUnits="userSpaceOnUse" x="31" y="30" width="8" height="9">
<path d="M34.9096 38.0037C37.0689 38.0037 38.8193 36.2179 38.8193 34.015C38.8193 31.8122 37.0689 30.0264 34.9096 30.0264C32.7504 30.0264 31 31.8122 31 34.015C31 36.2179 32.7504 38.0037 34.9096 38.0037Z" fill="url(#paint8_linear_1_11)"/>
</mask>
<g mask="url(#mask4_1_11)">
<path d="M34.9096 38.0037C37.0689 38.0037 38.8193 36.218 38.8193 34.0151C38.8193 31.8122 37.0689 30.0265 34.9096 30.0265C32.7504 30.0265 31 31.8122 31 34.0151C31 36.218 32.7504 38.0037 34.9096 38.0037Z" fill="url(#paint9_linear_1_11)"/>
</g>
<mask id="mask5_1_11" style="mask-type:alpha" maskUnits="userSpaceOnUse" x="53" y="30" width="9" height="9">
<path d="M57.5525 38.0038C59.7117 38.0038 61.4621 36.218 61.4621 34.0151C61.4621 31.8123 59.7117 30.0265 57.5525 30.0265C55.3933 30.0265 53.6429 31.8123 53.6429 34.0151C53.6429 36.218 55.3933 38.0038 57.5525 38.0038Z" fill="url(#paint10_linear_1_11)"/>
</mask>
<g mask="url(#mask5_1_11)">
<path d="M57.5529 38.0037C59.7121 38.0037 61.4625 36.2179 61.4625 34.0151C61.4625 31.8122 59.7121 30.0264 57.5529 30.0264C55.3937 30.0264 53.6432 31.8122 53.6432 34.0151C53.6432 36.2179 55.3937 38.0037 57.5529 38.0037Z" fill="url(#paint11_linear_1_11)"/>
</g>
<mask id="mask6_1_11" style="mask-type:alpha" maskUnits="userSpaceOnUse" x="76" y="30" width="9" height="9">
<path d="M80.1953 38.0038C82.3546 38.0038 84.105 36.218 84.105 34.0151C84.105 31.8123 82.3546 30.0265 80.1953 30.0265C78.0361 30.0265 76.2857 31.8123 76.2857 34.0151C76.2857 36.218 78.0361 38.0038 80.1953 38.0038Z" fill="url(#paint12_linear_1_11)"/>
</mask>
<g mask="url(#mask6_1_11)">
<path d="M80.196 38.0037C82.3552 38.0037 84.1056 36.2179 84.1056 34.0151C84.1056 31.8122 82.3552 30.0264 80.196 30.0264C78.0368 30.0264 76.2864 31.8122 76.2864 34.0151C76.2864 36.2179 78.0368 38.0037 80.196 38.0037Z" fill="url(#paint13_linear_1_11)"/>
</g>
<mask id="mask7_1_11" style="mask-type:alpha" maskUnits="userSpaceOnUse" x="98" y="30" width="9" height="9">
<path d="M102.838 38.0038C104.997 38.0038 106.748 36.218 106.748 34.0151C106.748 31.8123 104.997 30.0265 102.838 30.0265C100.679 30.0265 98.9285 31.8123 98.9285 34.0151C98.9285 36.218 100.679 38.0038 102.838 38.0038Z" fill="url(#paint14_linear_1_11)"/>
</mask>
<g mask="url(#mask7_1_11)">
<path d="M102.839 38.0037C104.998 38.0037 106.748 36.2179 106.748 34.0151C106.748 31.8122 104.998 30.0264 102.839 30.0264C100.68 30.0264 98.9291 31.8122 98.9291 34.0151C98.9291 36.2179 100.68 38.0037 102.839 38.0037Z" fill="url(#paint15_linear_1_11)"/>
</g>
<mask id="mask8_1_11" style="mask-type:alpha" maskUnits="userSpaceOnUse" x="31" y="50" width="8" height="8">
<path d="M34.9096 57.9887C37.0689 57.9887 38.8193 56.2029 38.8193 54C38.8193 51.7971 37.0689 50.0113 34.9096 50.0113C32.7504 50.0113 31 51.7971 31 54C31 56.2029 32.7504 57.9887 34.9096 57.9887Z" fill="url(#paint16_linear_1_11)"/>
</mask>
<g mask="url(#mask8_1_11)">
<path d="M34.9096 57.9888C37.0689 57.9888 38.8193 56.203 38.8193 54.0001C38.8193 51.7972 37.0689 50.0114 34.9096 50.0114C32.7504 50.0114 31 51.7972 31 54.0001C31 56.203 32.7504 57.9888 34.9096 57.9888Z" fill="url(#paint17_linear_1_11)"/>
</g>
<mask id="mask9_1_11" style="mask-type:alpha" maskUnits="userSpaceOnUse" x="53" y="50" width="9" height="8">
<path d="M57.5525 57.9889C59.7117 57.9889 61.4621 56.2032 61.4621 54.0003C61.4621 51.7974 59.7117 50.0116 57.5525 50.0116C55.3933 50.0116 53.6429 51.7974 53.6429 54.0003C53.6429 56.2032 55.3933 57.9889 57.5525 57.9889Z" fill="url(#paint18_linear_1_11)"/>
</mask>
<g mask="url(#mask9_1_11)">
<path d="M57.5529 57.9888C59.7121 57.9888 61.4625 56.203 61.4625 54.0001C61.4625 51.7972 59.7121 50.0114 57.5529 50.0114C55.3937 50.0114 53.6432 51.7972 53.6432 54.0001C53.6432 56.203 55.3937 57.9888 57.5529 57.9888Z" fill="url(#paint19_linear_1_11)"/>
</g>
<mask id="mask10_1_11" style="mask-type:alpha" maskUnits="userSpaceOnUse" x="76" y="50" width="9" height="8">
<path d="M80.1953 57.9889C82.3546 57.9889 84.105 56.2032 84.105 54.0003C84.105 51.7974 82.3546 50.0116 80.1953 50.0116C78.0361 50.0116 76.2857 51.7974 76.2857 54.0003C76.2857 56.2032 78.0361 57.9889 80.1953 57.9889Z" fill="url(#paint20_linear_1_11)"/>
</mask>
<g mask="url(#mask10_1_11)">
<path d="M80.196 57.9888C82.3552 57.9888 84.1056 56.203 84.1056 54.0001C84.1056 51.7972 82.3552 50.0114 80.196 50.0114C78.0368 50.0114 76.2864 51.7972 76.2864 54.0001C76.2864 56.203 78.0368 57.9888 80.196 57.9888Z" fill="url(#paint21_linear_1_11)"/>
</g>
<mask id="mask11_1_11" style="mask-type:alpha" maskUnits="userSpaceOnUse" x="98" y="50" width="9" height="8">
<path d="M102.838 57.9889C104.997 57.9889 106.748 56.2032 106.748 54.0003C106.748 51.7974 104.997 50.0116 102.838 50.0116C100.679 50.0116 98.9285 51.7974 98.9285 54.0003C98.9285 56.2032 100.679 57.9889 102.838 57.9889Z" fill="url(#paint22_linear_1_11)"/>
</mask>
<g mask="url(#mask11_1_11)">
<path d="M102.839 57.9888C104.998 57.9888 106.748 56.203 106.748 54.0001C106.748 51.7972 104.998 50.0114 102.839 50.0114C100.68 50.0114 98.9291 51.7972 98.9291 54.0001C98.9291 56.203 100.68 57.9888 102.839 57.9888Z" fill="url(#paint23_linear_1_11)"/>
</g>
<mask id="mask12_1_11" style="mask-type:alpha" maskUnits="userSpaceOnUse" x="31" y="70" width="8" height="9">
<path d="M34.9096 78.0155C37.0689 78.0155 38.8193 76.2296 38.8193 74.0268C38.8193 71.8239 37.0689 70.0381 34.9096 70.0381C32.7504 70.0381 31 71.8239 31 74.0268C31 76.2296 32.7504 78.0155 34.9096 78.0155Z" fill="url(#paint24_linear_1_11)"/>
</mask>
<g mask="url(#mask12_1_11)">
<path d="M34.9096 78.0152C37.0689 78.0152 38.8193 76.2294 38.8193 74.0265C38.8193 71.8236 37.0689 70.0379 34.9096 70.0379C32.7504 70.0379 31 71.8236 31 74.0265C31 76.2294 32.7504 78.0152 34.9096 78.0152Z" fill="url(#paint25_linear_1_11)"/>
</g>
<mask id="mask13_1_11" style="mask-type:alpha" maskUnits="userSpaceOnUse" x="53" y="70" width="9" height="9">
<path d="M57.5525 78.0155C59.7117 78.0155 61.4621 76.2296 61.4621 74.0268C61.4621 71.8239 59.7117 70.0381 57.5525 70.0381C55.3933 70.0381 53.6429 71.8239 53.6429 74.0268C53.6429 76.2296 55.3933 78.0155 57.5525 78.0155Z" fill="url(#paint26_linear_1_11)"/>
</mask>
<g mask="url(#mask13_1_11)">
<path d="M57.5529 78.0152C59.7121 78.0152 61.4625 76.2294 61.4625 74.0265C61.4625 71.8236 59.7121 70.0379 57.5529 70.0379C55.3937 70.0379 53.6432 71.8236 53.6432 74.0265C53.6432 76.2294 55.3937 78.0152 57.5529 78.0152Z" fill="url(#paint27_linear_1_11)"/>
</g>
<mask id="mask14_1_11" style="mask-type:alpha" maskUnits="userSpaceOnUse" x="76" y="70" width="9" height="9">
<path d="M80.1953 78.0155C82.3546 78.0155 84.105 76.2296 84.105 74.0268C84.105 71.8239 82.3546 70.0381 80.1953 70.0381C78.0361 70.0381 76.2857 71.8239 76.2857 74.0268C76.2857 76.2296 78.0361 78.0155 80.1953 78.0155Z" fill="url(#paint28_linear_1_11)"/>
</mask>
<g mask="url(#mask14_1_11)">
<path d="M80.196 78.0152C82.3552 78.0152 84.1056 76.2294 84.1056 74.0265C84.1056 71.8236 82.3552 70.0379 80.196 70.0379C78.0368 70.0379 76.2864 71.8236 76.2864 74.0265C76.2864 76.2294 78.0368 78.0152 80.196 78.0152Z" fill="url(#paint29_linear_1_11)"/>
</g>
<mask id="mask15_1_11" style="mask-type:alpha" maskUnits="userSpaceOnUse" x="98" y="70" width="9" height="9">
<path d="M102.838 78.0155C104.997 78.0155 106.748 76.2296 106.748 74.0268C106.748 71.8239 104.997 70.0381 102.838 70.0381C100.679 70.0381 98.9285 71.8239 98.9285 74.0268C98.9285 76.2296 100.679 78.0155 102.838 78.0155Z" fill="url(#paint30_linear_1_11)"/>
</mask>
<g mask="url(#mask15_1_11)">
<path d="M102.839 78.0152C104.998 78.0152 106.748 76.2294 106.748 74.0265C106.748 71.8236 104.998 70.0379 102.839 70.0379C100.68 70.0379 98.9291 71.8236 98.9291 74.0265C98.9291 76.2294 100.68 78.0152 102.839 78.0152Z" fill="url(#paint31_linear_1_11)"/>
</g>
</g>
<defs>
<linearGradient id="paint0_linear_1_11" x1="69.076" y1="102.471" x2="13.514" y2="-35.7764" gradientUnits="userSpaceOnUse">
<stop stop-color="#FFA434"/>
<stop offset="1" stop-color="#FFA434"/>
</linearGradient>
<linearGradient id="paint1_linear_1_11" x1="69.076" y1="102.471" x2="13.514" y2="-35.7764" gradientUnits="userSpaceOnUse">
<stop stop-color="#FFA434"/>
<stop offset="1" stop-color="#FFA434"/>
</linearGradient>
<linearGradient id="paint2_linear_1_11" x1="91.7189" y1="102.471" x2="36.1569" y2="-35.7764" gradientUnits="userSpaceOnUse">
<stop stop-color="#FFA434"/>
<stop offset="1" stop-color="#FFA434"/>
</linearGradient>
<linearGradient id="paint3_linear_1_11" x1="91.7193" y1="102.471" x2="36.1573" y2="-35.7764" gradientUnits="userSpaceOnUse">
<stop stop-color="#FFA434"/>
<stop offset="1" stop-color="#FFA434"/>
</linearGradient>
<linearGradient id="paint4_linear_1_11" x1="114.362" y1="102.471" x2="58.7998" y2="-35.7764" gradientUnits="userSpaceOnUse">
<stop stop-color="#FFA434"/>
<stop offset="1" stop-color="#FFA434"/>
</linearGradient>
<linearGradient id="paint5_linear_1_11" x1="114.362" y1="102.471" x2="58.8004" y2="-35.7764" gradientUnits="userSpaceOnUse">
<stop stop-color="#FFA434"/>
<stop offset="1" stop-color="#FFA434"/>
</linearGradient>
<linearGradient id="paint6_linear_1_11" x1="137.005" y1="102.471" x2="81.4426" y2="-35.7764" gradientUnits="userSpaceOnUse">
<stop stop-color="#FFA434"/>
<stop offset="1" stop-color="#FFA434"/>
</linearGradient>
<linearGradient id="paint7_linear_1_11" x1="137.005" y1="102.471" x2="81.4432" y2="-35.7764" gradientUnits="userSpaceOnUse">
<stop stop-color="#FFA434"/>
<stop offset="1" stop-color="#FFA434"/>
</linearGradient>
<linearGradient id="paint8_linear_1_11" x1="69.076" y1="122.496" x2="13.5149" y2="-15.7499" gradientUnits="userSpaceOnUse">
<stop stop-color="#FFA434"/>
<stop offset="1" stop-color="#FFA434"/>
</linearGradient>
<linearGradient id="paint9_linear_1_11" x1="69.076" y1="122.496" x2="13.5149" y2="-15.7499" gradientUnits="userSpaceOnUse">
<stop stop-color="#FFA434"/>
<stop offset="1" stop-color="#FFA434"/>
</linearGradient>
<linearGradient id="paint10_linear_1_11" x1="91.7189" y1="122.496" x2="36.1579" y2="-15.7499" gradientUnits="userSpaceOnUse">
<stop stop-color="#FFA434"/>
<stop offset="1" stop-color="#FFA434"/>
</linearGradient>
<linearGradient id="paint11_linear_1_11" x1="91.7193" y1="122.496" x2="36.1582" y2="-15.7499" gradientUnits="userSpaceOnUse">
<stop stop-color="#FFA434"/>
<stop offset="1" stop-color="#FFA434"/>
</linearGradient>
<linearGradient id="paint12_linear_1_11" x1="114.362" y1="122.496" x2="58.8007" y2="-15.7499" gradientUnits="userSpaceOnUse">
<stop stop-color="#FFA434"/>
<stop offset="1" stop-color="#FFA434"/>
</linearGradient>
<linearGradient id="paint13_linear_1_11" x1="114.362" y1="122.496" x2="58.8014" y2="-15.7499" gradientUnits="userSpaceOnUse">
<stop stop-color="#FFA434"/>
<stop offset="1" stop-color="#FFA434"/>
</linearGradient>
<linearGradient id="paint14_linear_1_11" x1="137.005" y1="122.496" x2="81.4435" y2="-15.7499" gradientUnits="userSpaceOnUse">
<stop stop-color="#FFA434"/>
<stop offset="1" stop-color="#FFA434"/>
</linearGradient>
<linearGradient id="paint15_linear_1_11" x1="137.005" y1="122.496" x2="81.4441" y2="-15.7499" gradientUnits="userSpaceOnUse">
<stop stop-color="#FFA434"/>
<stop offset="1" stop-color="#FFA434"/>
</linearGradient>
<linearGradient id="paint16_linear_1_11" x1="69.076" y1="142.482" x2="13.514" y2="4.23493" gradientUnits="userSpaceOnUse">
<stop stop-color="#FFA434"/>
<stop offset="1" stop-color="#FFA434"/>
</linearGradient>
<linearGradient id="paint17_linear_1_11" x1="69.076" y1="142.482" x2="13.514" y2="4.23502" gradientUnits="userSpaceOnUse">
<stop stop-color="#FFA434"/>
<stop offset="1" stop-color="#FFA434"/>
</linearGradient>
<linearGradient id="paint18_linear_1_11" x1="91.7189" y1="142.482" x2="36.1569" y2="4.23516" gradientUnits="userSpaceOnUse">
<stop stop-color="#FFA434"/>
<stop offset="1" stop-color="#FFA434"/>
</linearGradient>
<linearGradient id="paint19_linear_1_11" x1="91.7193" y1="142.482" x2="36.1573" y2="4.23498" gradientUnits="userSpaceOnUse">
<stop stop-color="#FFA434"/>
<stop offset="1" stop-color="#FFA434"/>
</linearGradient>
<linearGradient id="paint20_linear_1_11" x1="114.362" y1="142.482" x2="58.7998" y2="4.23516" gradientUnits="userSpaceOnUse">
<stop stop-color="#FFA434"/>
<stop offset="1" stop-color="#FFA434"/>
</linearGradient>
<linearGradient id="paint21_linear_1_11" x1="114.362" y1="142.482" x2="58.8004" y2="4.23498" gradientUnits="userSpaceOnUse">
<stop stop-color="#FFA434"/>
<stop offset="1" stop-color="#FFA434"/>
</linearGradient>
<linearGradient id="paint22_linear_1_11" x1="137.005" y1="142.482" x2="81.4426" y2="4.23516" gradientUnits="userSpaceOnUse">
<stop stop-color="#FFA434"/>
<stop offset="1" stop-color="#FFA434"/>
</linearGradient>
<linearGradient id="paint23_linear_1_11" x1="137.005" y1="142.482" x2="81.4432" y2="4.23498" gradientUnits="userSpaceOnUse">
<stop stop-color="#FFA434"/>
<stop offset="1" stop-color="#FFA434"/>
</linearGradient>
<linearGradient id="paint24_linear_1_11" x1="69.076" y1="162.509" x2="13.514" y2="24.2617" gradientUnits="userSpaceOnUse">
<stop stop-color="#FFA434"/>
<stop offset="1" stop-color="#FFA434"/>
</linearGradient>
<linearGradient id="paint25_linear_1_11" x1="69.076" y1="162.509" x2="13.514" y2="24.2615" gradientUnits="userSpaceOnUse">
<stop stop-color="#FFA434"/>
<stop offset="1" stop-color="#FFA434"/>
</linearGradient>
<linearGradient id="paint26_linear_1_11" x1="91.7189" y1="162.509" x2="36.1569" y2="24.2617" gradientUnits="userSpaceOnUse">
<stop stop-color="#FFA434"/>
<stop offset="1" stop-color="#FFA434"/>
</linearGradient>
<linearGradient id="paint27_linear_1_11" x1="91.7193" y1="162.509" x2="36.1573" y2="24.2614" gradientUnits="userSpaceOnUse">
<stop stop-color="#FFA434"/>
<stop offset="1" stop-color="#FFA434"/>
</linearGradient>
<linearGradient id="paint28_linear_1_11" x1="114.362" y1="162.509" x2="58.7998" y2="24.2617" gradientUnits="userSpaceOnUse">
<stop stop-color="#FFA434"/>
<stop offset="1" stop-color="#FFA434"/>
</linearGradient>
<linearGradient id="paint29_linear_1_11" x1="114.362" y1="162.509" x2="58.8004" y2="24.2614" gradientUnits="userSpaceOnUse">
<stop stop-color="#FFA434"/>
<stop offset="1" stop-color="#FFA434"/>
</linearGradient>
<linearGradient id="paint30_linear_1_11" x1="137.005" y1="162.509" x2="81.4426" y2="24.2617" gradientUnits="userSpaceOnUse">
<stop stop-color="#FFA434"/>
<stop offset="1" stop-color="#FFA434"/>
</linearGradient>
<linearGradient id="paint31_linear_1_11" x1="137.005" y1="162.509" x2="81.4432" y2="24.2614" gradientUnits="userSpaceOnUse">
<stop stop-color="#FFA434"/>
<stop offset="1" stop-color="#FFA434"/>
</linearGradient>
</defs>
</svg>
